<svg xmlns="http://www.w3.org/2000/svg" viewBox="0 0 720 480" width="720" height="480">
  <defs>
    <filter id="s" x="-8%" y="-8%" width="116%" height="124%">
      <feDropShadow dx="0" dy="2" stdDeviation="5" flood-color="rgba(11,59,92,0.14)"/>
    </filter>
    <marker id="a" markerWidth="8" markerHeight="8" refX="6" refY="3" orient="auto">
      <path d="M0,0 L0,6 L8,3 Z" fill="#D4AF37"/>
    </marker>
  </defs>

  <!-- AUDIT READY badge -->
  <rect x="570" y="10" width="136" height="32" rx="16" fill="#D4AF37" filter="url(#s)"/>
  <text x="638" y="31" text-anchor="middle"
    font-family="Arial,Helvetica,sans-serif" font-size="12" font-weight="700"
    fill="#0B3B5C" letter-spacing="1">AUDIT READY</text>

  <!-- ── TOP: Vessel Data ── -->
  <rect x="256" y="14" width="208" height="64" rx="6" fill="#0B3B5C" filter="url(#s)"/>
  <g transform="translate(280,22)" stroke="white" stroke-width="1.6" fill="none">
    <ellipse cx="16" cy="6"  rx="16" ry="6"/>
    <ellipse cx="16" cy="22" rx="16" ry="6"/>
    <line x1="0"  y1="6"  x2="0"  y2="22"/>
    <line x1="32" y1="6"  x2="32" y2="22"/>
    <path d="M0,14 Q16,20 32,14"/>
  </g>
  <text x="360" y="54" text-anchor="middle"
    font-family="Arial,Helvetica,sans-serif" font-size="14" font-weight="700" fill="white">Vessel Data</text>
  <text x="360" y="70" text-anchor="middle"
    font-family="Arial,Helvetica,sans-serif" font-size="12" fill="rgba(255,255,255,0.72)">Drawings · Specs · History</text>

  <!-- Branch lines -->
  <line x1="360" y1="78" x2="360" y2="100" stroke="#D4AF37" stroke-width="1.8"/>
  <line x1="116" y1="100" x2="604" y2="100" stroke="#D4AF37" stroke-width="1.8"/>
  <line x1="116" y1="100" x2="116" y2="120" stroke="#D4AF37" stroke-width="1.8" marker-end="url(#a)"/>
  <line x1="360" y1="100" x2="360" y2="120" stroke="#D4AF37" stroke-width="1.8" marker-end="url(#a)"/>
  <line x1="604" y1="100" x2="604" y2="120" stroke="#D4AF37" stroke-width="1.8" marker-end="url(#a)"/>

  <!-- ── BLOCK 1: P&ID ── -->
  <rect x="24"  y="128" width="184" height="110" rx="6" fill="#1A4B7A" filter="url(#s)"/>
  <g transform="translate(38,140)" stroke="white" stroke-width="1.6" fill="none">
    <rect x="0" y="0" width="20" height="26" rx="2"/>
    <line x1="3" y1="8"  x2="17" y2="8"/>
    <line x1="3" y1="13" x2="17" y2="13"/>
    <line x1="3" y1="18" x2="11" y2="18"/>
    <polyline points="13,0 13,7 20,7"/>
  </g>
  <text x="116" y="154" text-anchor="middle"
    font-family="Arial,Helvetica,sans-serif" font-size="13" font-weight="700" fill="white">As-Built P&amp;ID</text>
  <text x="116" y="172" text-anchor="middle"
    font-family="Arial,Helvetica,sans-serif" font-size="13" font-weight="700" fill="white">System Manuals</text>
  <text x="116" y="192" text-anchor="middle"
    font-family="Arial,Helvetica,sans-serif" font-size="12" fill="rgba(255,255,255,0.75)">Piping &amp; instrumentation</text>
  <text x="116" y="208" text-anchor="middle"
    font-family="Arial,Helvetica,sans-serif" font-size="12" fill="rgba(255,255,255,0.75)">diagrams, IMO standards</text>
  <text x="116" y="228" text-anchor="middle"
    font-family="Arial,Helvetica,sans-serif" font-size="12" font-weight="600" fill="#D4AF37">EU MRV · MARPOL</text>

  <!-- ── BLOCK 2: EAB ── -->
  <rect x="268" y="128" width="184" height="110" rx="6" fill="#2A5F8A" filter="url(#s)"/>
  <g transform="translate(282,140)" stroke="white" stroke-width="1.6" fill="none">
    <rect x="6" y="6" width="14" height="12" rx="2"/>
    <line x1="0"  y1="12" x2="6"  y2="12"/>
    <line x1="20" y1="12" x2="26" y2="12"/>
    <line x1="0"  y1="9"  x2="0"  y2="15"/>
    <line x1="26" y1="9"  x2="26" y2="15"/>
    <line x1="13" y1="0"  x2="13" y2="6"/>
    <line x1="13" y1="18" x2="13" y2="24"/>
    <line x1="10" y1="24" x2="16" y2="24"/>
  </g>
  <text x="360" y="154" text-anchor="middle"
    font-family="Arial,Helvetica,sans-serif" font-size="13" font-weight="700" fill="white">Electrical Load</text>
  <text x="360" y="172" text-anchor="middle"
    font-family="Arial,Helvetica,sans-serif" font-size="13" font-weight="700" fill="white">Analysis (EAB)</text>
  <text x="360" y="192" text-anchor="middle"
    font-family="Arial,Helvetica,sans-serif" font-size="12" fill="rgba(255,255,255,0.75)">Power balance, load groups,</text>
  <text x="360" y="208" text-anchor="middle"
    font-family="Arial,Helvetica,sans-serif" font-size="12" fill="rgba(255,255,255,0.75)">emergency supply verification</text>
  <text x="360" y="228" text-anchor="middle"
    font-family="Arial,Helvetica,sans-serif" font-size="12" font-weight="600" fill="#D4AF37">SOLAS · Class Rules</text>

  <!-- ── BLOCK 3: Fuel ── -->
  <rect x="512" y="128" width="184" height="110" rx="6" fill="#3A74A0" filter="url(#s)"/>
  <g transform="translate(526,140)" stroke="white" stroke-width="1.6" fill="none">
    <path d="M14,4 C14,4 5,16 5,21 A9,9 0 0,0 23,21 C23,16 14,4 14,4Z"/>
    <line x1="8" y1="21" x2="11" y2="18"/>
  </g>
  <text x="604" y="154" text-anchor="middle"
    font-family="Arial,Helvetica,sans-serif" font-size="13" font-weight="700" fill="white">Fuel Management</text>
  <text x="604" y="172" text-anchor="middle"
    font-family="Arial,Helvetica,sans-serif" font-size="13" font-weight="700" fill="white">&amp; Quality Booklet</text>
  <text x="604" y="192" text-anchor="middle"
    font-family="Arial,Helvetica,sans-serif" font-size="12" fill="rgba(255,255,255,0.75)">Bunkering procedures,</text>
  <text x="604" y="208" text-anchor="middle"
    font-family="Arial,Helvetica,sans-serif" font-size="12" fill="rgba(255,255,255,0.75)">quality control &amp; IHM</text>
  <text x="604" y="228" text-anchor="middle"
    font-family="Arial,Helvetica,sans-serif" font-size="12" font-weight="600" fill="#D4AF37">EU MRV · IMO DCS</text>

  <!-- Converge lines -->
  <line x1="116" y1="238" x2="116" y2="272" stroke="#D4AF37" stroke-width="1.8"/>
  <line x1="116" y1="272" x2="348" y2="272" stroke="#D4AF37" stroke-width="1.8"/>
  <line x1="360" y1="238" x2="360" y2="272" stroke="#D4AF37" stroke-width="1.8"/>
  <line x1="604" y1="238" x2="604" y2="272" stroke="#D4AF37" stroke-width="1.8"/>
  <line x1="604" y1="272" x2="372" y2="272" stroke="#D4AF37" stroke-width="1.8"/>
  <line x1="360" y1="272" x2="360" y2="294" stroke="#D4AF37" stroke-width="1.8" marker-end="url(#a)"/>

  <!-- ── IHM / Class Submission ── -->
  <rect x="172" y="302" width="376" height="72" rx="6" fill="#D4AF37" filter="url(#s)"/>
  <text x="360" y="334" text-anchor="middle"
    font-family="Arial,Helvetica,sans-serif" font-size="16" font-weight="700" fill="#0B3B5C">IHM / Class Submission</text>
  <text x="360" y="356" text-anchor="middle"
    font-family="Arial,Helvetica,sans-serif" font-size="12" fill="#0B3B5C" opacity="0.85">
    Inventory of Hazardous Materials · Flag State · PSC
  </text>

  <!-- Outcome text -->
  <text x="360" y="412" text-anchor="middle"
    font-family="Arial,Helvetica,sans-serif" font-size="13" fill="#3A74A0" font-style="italic">
    Outcome: Audit-ready documentation · Full regulatory traceability
  </text>

  <!-- Bottom rule -->
  <line x1="60" y1="430" x2="660" y2="430" stroke="#E2ECF3" stroke-width="1"/>
  <text x="360" y="452" text-anchor="middle"
    font-family="Arial,Helvetica,sans-serif" font-size="11" fill="#3A74A0"
    letter-spacing="2" opacity="0.6">ADRIATICA D.O.O. · ENGINEERING DOCUMENTATION</text>

</svg>
