<svg xmlns="http://www.w3.org/2000/svg" viewBox="0 0 100 160" width="100%" height="100%">
  <polygon points="40,1 49,14 40,27 31,14" fill="#0B3B5C" />
  <polygon points="60,1 69,14 60,27 51,14" fill="#3A74A0" />
  <polygon points="30,15 39,28 30,41 21,28" fill="#2A5F8A" />
  <polygon points="50,15 59,28 50,41 41,28" fill="#1A4B7A" />
  <polygon points="70,15 79,28 70,41 61,28" fill="#0B3B5C" />
  <polygon points="20,29 29,42 20,55 11,42" fill="#0B3B5C" />
  <polygon points="40,29 49,42 40,55 31,42" fill="#3A74A0" />
  <polygon points="60,29 69,42 60,55 51,42" fill="#2A5F8A" />
  <polygon points="80,29 89,42 80,55 71,42" fill="#1A4B7A" />
  <polygon points="30,43 39,56 30,69 21,56" fill="#2A5F8A" />
  <polygon points="50,43 59,56 50,69 41,56" fill="#1A4B7A" />
  <polygon points="70,43 79,56 70,69 61,56" fill="#0B3B5C" />
  <polygon points="20,57 29,70 20,83 11,70" fill="#0B3B5C" />
  <polygon points="40,57 49,70 40,83 31,70" fill="#3A74A0" />
  <polygon points="60,57 69,70 60,83 51,70" fill="#2A5F8A" />
  <polygon points="80,57 89,70 80,83 71,70" fill="#1A4B7A" />
  <polygon points="30,71 39,84 30,97 21,84" fill="#2A5F8A" />
  <polygon points="50,71 59,84 50,97 41,84" fill="#1A4B7A" />
  <polygon points="70,71 79,84 70,97 61,84" fill="#0B3B5C" />
  <polygon points="20,85 29,98 20,111 11,98" fill="#0B3B5C" />
  <polygon points="40,85 49,98 40,111 31,98" fill="#3A74A0" />
  <polygon points="60,85 69,98 60,111 51,98" fill="#2A5F8A" />
  <polygon points="80,85 89,98 80,111 71,98" fill="#1A4B7A" />
  <polygon points="30,99 39,112 30,125 21,112" fill="#2A5F8A" />
  <polygon points="50,99 59,112 50,125 41,112" fill="#1A4B7A" />
  <polygon points="70,99 79,112 70,125 61,112" fill="#0B3B5C" />
  <polygon points="40,113 49,126 40,139 31,126" fill="#0B3B5C" />
  <polygon points="60,113 69,126 60,139 51,126" fill="#3A74A0" />
  <polygon points="50,127 59,140 50,153 41,140" fill="#2A5F8A" />
</svg>