<?xml version="1.0" encoding="UTF-8" standalone="no"?>
<svg
   height="215"
   version="1.1"
   width="300"
   style="overflow:hidden"
   viewBox="210 200 114.09738 100.33534"
   preserveAspectRatio="xMinYMin"
   id="svg10"
   sodipodi:docname="map.svg"
   inkscape:version="1.4.2 (f4327f4, 2025-05-13)"
   xmlns:inkscape="http://www.inkscape.org/namespaces/inkscape"
   xmlns:sodipodi="http://sodipodi.sourceforge.net/DTD/sodipodi-0.dtd"
   xmlns="http://www.w3.org/2000/svg"
   xmlns:svg="http://www.w3.org/2000/svg">
  <sodipodi:namedview
     id="namedview10"
     pagecolor="#ffffff"
     bordercolor="#000000"
     borderopacity="0.25"
     inkscape:showpageshadow="2"
     inkscape:pageopacity="0.0"
     inkscape:pagecheckerboard="0"
     inkscape:deskcolor="#d1d1d1"
     inkscape:zoom="1.9021552"
     inkscape:cx="150.35577"
     inkscape:cy="170.07025"
     inkscape:window-width="1920"
     inkscape:window-height="1009"
     inkscape:window-x="-8"
     inkscape:window-y="-8"
     inkscape:window-maximized="1"
     inkscape:current-layer="svg10" />
  <rect
     x="-722.78503"
     y="-599.4787"
     width="1971.8104"
     height="1499.8259"
     r="0"
     rx="0"
     ry="0"
     fill="#ffffff"
     stroke="none"
     stroke-width="0.999904"
     style="fill-opacity:0;-webkit-tap-highlight-color:rgba(0, 0, 0, 0)"
     fill-opacity="0"
     id="rect1" />
  <path
     fill="#808080"
     stroke="#ffffff"
     d="m 273.92262,234.58201 1.04926,0.18248 -0.50182,0.41058 z m 5.88498,0.6843 0.72992,-0.0456 0.27372,0.41058 2.82844,1.73356 0.77554,0.31934 0.54744,0.86678 -2.18976,-1.41422 -2.00728,-1.1405 -1.41422,-0.31934 -1.96166,-0.9124 -0.2281,-0.41058 2.64596,0.9124 z m -2.87406,-1.5967 -0.36496,0.0456 -2.55472,-0.0456 -0.77554,-0.13686 -0.2281,-0.59306 0.82116,0.0912 0.2281,0.27372 2.87406,0.36496 z m -2.41786,-1.04926 -0.9124,0.0456 -1.18612,-0.36496 0.13686,-0.50182 2.18976,0.27372 -0.2281,0.54744 z m -9.67144,-7.5273 -0.13686,0.18248 -1.50546,-1.23174 -0.13686,-0.86678 1.27736,1.23174 z m -2.23538,-2.9653 -0.86678,-0.0912 0.36496,-0.50182 z m -1.91604,0.6843 -0.41058,-0.0456 -0.77554,-1.91604 0.18248,-0.54744 -0.36496,-0.9124 0.41058,-0.13686 0.2281,0.95802 0.4562,0.41058 -0.0456,0.72992 z m 1.68794,-2.23538 -0.6843,0.13686 -0.4562,-0.4562 -0.59306,-0.0912 -0.4562,-0.4562 0.4562,-0.31934 0.2281,-0.54744 1.50546,1.73356 z m 22.5819,-6.70614 -0.31934,0.6843 0.72992,1.23174 0.0912,0.72992 0.59306,0.18248 -0.18248,0.9124 0.54744,0.4562 1.3686,0.4562 0.41058,0.6843 -1.04926,0.0456 -0.77554,0.18248 0.31934,1.18612 -0.4562,0.72992 -1.00364,-0.0912 -0.59306,-1.00364 -0.50182,-0.36496 -1.00364,-0.0912 -1.18612,-0.31934 -0.82116,0.0912 -0.82116,-0.13686 -1.00364,0.4562 -0.72992,-0.59306 -0.77554,0.27372 -1.27736,-0.31934 -1.1405,-0.0456 -1.23174,-0.72992 -0.6843,0.54744 -1.45984,-0.13686 -1.23174,1.45984 -0.82116,-0.4562 -0.77554,-0.82116 -0.82116,-0.18248 -0.54744,0.27372 -0.13686,2.281 0.0456,0.63868 0.86678,0.59306 1.55108,1.45984 0.59306,1.8248 1.04926,1.09488 1.27736,1.04926 0.77554,0.9124 2.281,1.87042 1.09488,0.50182 0.18248,1.00364 0.6843,0.72992 1.3686,1.1405 -0.13686,0.72992 -1.5967,-1.27736 -1.18612,-0.6843 -1.41422,-1.27736 -1.73356,-0.50182 -1.23174,-0.54744 -1.50546,0.27372 -0.82116,-0.0912 -0.31934,-1.00364 -2.64596,-1.77918 -1.96166,-1.8248 -0.36496,-0.59306 1.41422,-0.54744 -0.63868,-0.36496 -1.77918,-1.55108 -0.54744,-0.72992 -0.0456,-1.87042 -0.36496,-0.77554 -1.32298,-1.00364 -0.50182,-0.50182 -0.95802,-0.31934 -0.63868,0.41058 -0.13686,0.86678 -1.3686,2.281 h -0.59306 l -1.41422,-1.91604 -0.2281,-0.86678 -0.59306,-1.77918 0.31934,-0.2281 0.2281,0.27372 1.50546,0.36496 0.63868,-0.59306 0.50182,0.2281 1.64232,-0.0456 0.27372,-0.13686 0.54744,-1.00364 1.18612,0.95802 0.6843,0.31934 0.59306,-0.2281 0.9124,0.31934 0.72992,0.0912 0.54744,-0.18248 -0.36496,-1.04926 0.31934,-0.31934 -0.4562,-0.50182 0.95802,-0.4562 0.95802,-0.27372 0.18248,-0.50182 -0.0912,-1.00364 -0.41058,-0.41058 0.18248,-0.63868 2.00728,-0.77554 0.31934,-0.4562 h 0.9124 v -0.77554 l 0.41058,-0.36496 1.1405,0.27372 1.32298,0.54744 0.77554,0.54744 0.41058,0.59306 1.23174,0.82116 1.00364,1.00364 0.59306,0.31934 1.1405,0.27372 0.59306,0.59306 1.50546,0.41058 2.23538,0.0912 1.1405,-0.41058 0.50182,-0.63868 1.32298,-0.18248 z"
     class="sm_state sm_state_HR"
     opacity="1"
     stroke-opacity="1"
     stroke-width="0.739429"
     stroke-linejoin="round"
     style="opacity:1;fill-opacity:1;stroke-linejoin:round;stroke-opacity:1;-webkit-tap-highlight-color:rgba(0, 0, 0, 0)"
     fill-opacity="1"
     id="path1" />
  <path
     fill="#808080"
     stroke="#ffffff"
     d="m 286.24002,221.35221 1.27736,-0.31934 0.6843,0.36496 -0.2281,1.1405 -0.72992,1.23174 -0.0456,1.18612 0.2281,0.36496 1.09488,0.54744 1.50546,1.32298 -0.13686,0.36496 -1.41422,-0.0456 -0.2281,0.36496 1.45984,1.68794 -0.0912,1.00364 -1.1405,-0.13686 -0.31934,0.36496 -1.45984,0.2281 0.63868,1.00364 -1.04926,0.0912 -0.9124,0.77554 -0.2281,0.77554 0.0456,0.6843 -0.77554,0.0912 -0.2281,0.31934 0.27372,1.3686 0.50182,0.72992 -0.0456,0.36496 -0.50182,0.4562 -0.77554,-0.31934 -2.82844,-1.73356 -0.27372,-0.41058 -0.72992,0.0456 -0.50182,-0.27372 0.13686,-0.72992 -1.3686,-1.1405 -0.6843,-0.72992 -0.18248,-1.00364 -1.09488,-0.50182 -2.281,-1.87042 -0.77554,-0.9124 -1.27736,-1.04926 -1.04926,-1.09488 -0.59306,-1.8248 -1.55108,-1.45984 -0.86678,-0.59306 -0.0456,-0.63868 0.13686,-2.281 0.54744,-0.27372 0.82116,0.18248 0.77554,0.82116 0.82116,0.4562 1.23174,-1.45984 1.45984,0.13686 0.6843,-0.54744 1.23174,0.72992 1.1405,0.0456 1.27736,0.31934 0.77554,-0.27372 0.72992,0.59306 1.00364,-0.4562 0.82116,0.13686 0.82116,-0.0912 1.18612,0.31934 1.00364,0.0912 0.50182,0.36496 0.59306,1.00364 1.00364,0.0912 z"
     class="sm_state sm_state_BA"
     opacity="1"
     stroke-opacity="1"
     stroke-width="0.739429"
     stroke-linejoin="round"
     style="opacity:1;fill-opacity:1;stroke-linejoin:round;stroke-opacity:1;-webkit-tap-highlight-color:rgba(0, 0, 0, 0)"
     fill-opacity="1"
     id="path2" />
  <path
     fill="#808080"
     stroke="#ffffff"
     d="m 320.31816,287.72931 h 1.04926 l 0.77554,-0.4562 1.00364,1.68794 0.77554,-0.0456 1.5967,-0.41058 1.68794,0.0912 0.63868,0.4562 1.18612,0.0912 1.04926,0.2281 1.50546,-0.31934 0.18248,0.18248 0.0456,1.27736 0.54744,0.0912 0.31934,-0.31934 0.77554,-0.27372 h 0.82116 l 0.72992,-0.36496 -0.18248,1.5967 -0.41058,0.18248 -2.00728,-0.0456 -3.69522,0.4562 -2.41786,0.18248 -0.31934,-0.0912 -0.31934,-1.00364 -1.50546,-0.50182 -2.82844,-0.4562 -0.6843,-0.18248 -1.41422,0.0912 -0.50182,-0.4562 -0.18248,-0.82116 0.0912,-0.86678 0.63868,0.13686 0.18248,-0.63868 0.86678,0.50182 z m 19.79908,0.50182 -0.72992,-0.95802 0.50182,-0.2281 0.54744,1.09488 z m -24.95414,-5.20068 -0.63868,0.0912 -0.31934,-1.00364 0.2281,-0.4562 0.95802,0.95802 z m 28.60374,1.87042 -0.77554,-0.18248 0.18248,-0.82116 -0.31934,-0.72992 1.04926,-1.23174 1.45984,-0.59306 0.41058,0.41058 -0.41058,1.1405 -0.41058,0.59306 0.18248,0.4562 -0.72992,0.0912 -0.63868,0.86678 z m -8.6678,-4.69886 -0.6843,0.54744 -0.41058,-0.27372 0.86678,-0.54744 z m 2.82844,-1.00364 v -0.31934 l 0.59306,-0.50182 1.1405,-0.4562 0.54744,0.27372 -1.1405,0.63868 -0.6843,0.0456 z m -10.12764,-2.46348 -0.41058,0.59306 -0.59306,-0.31934 0.18248,-0.54744 0.50182,-0.27372 z m 1.64232,0.72992 -0.50182,0.27372 -0.63868,-1.00364 0.86678,-0.9124 0.41058,0.31934 0.0456,0.82116 z m 2.46348,-4.01456 0.27372,-0.72992 0.72992,-0.0456 v 0.50182 z m -9.89954,-0.31934 -0.4562,-0.18248 0.18248,-0.54744 0.50182,0.2281 z m 14.41592,-1.68794 1.27736,0.31934 -0.31934,0.4562 -0.72992,0.41058 -0.77554,-0.41058 -0.54744,-0.54744 z m -34.99054,0.0456 0.18248,0.54744 -0.50182,0.4562 -0.72992,-0.54744 -0.54744,-0.82116 0.41058,-0.50182 0.41058,0.54744 z m 24.22422,0.31934 -0.63868,-0.0456 -1.09488,-0.95802 0.41058,-0.63868 0.41058,0.54744 0.59306,0.0456 z m -26.14026,-4.42514 0.13686,0.82116 0.41058,0.13686 0.59306,0.72992 -0.0912,0.54744 -0.95802,-0.36496 -0.4562,0.0912 -0.50182,-0.9124 -0.59306,0.0912 0.27372,-0.82116 0.63868,0.0456 0.54744,-0.36496 z m 32.29896,1.1405 -0.50182,0.41058 -0.82116,-0.77554 0.63868,-0.59306 -0.95802,-1.09488 -0.0456,-0.4562 0.95802,-0.2281 0.59306,0.41058 0.27372,0.54744 0.18248,1.18612 -0.31934,0.59306 z m -32.02524,-2.78282 -0.59306,0.0456 -0.18248,-0.41058 0.36496,-1.09488 0.50182,0.13686 0.0912,1.1405 -0.18248,0.18248 z m 15.78452,-2.46348 0.41058,0.77554 2.5091,1.1405 1.27736,0.13686 0.77554,1.18612 -0.0912,0.27372 0.6843,1.73356 0.50182,0.41058 1.23174,0.13686 0.18248,0.86678 -0.41058,0.36496 -0.86678,-0.31934 -0.95802,-0.72992 -0.18248,-0.59306 -1.00364,-1.32298 -1.64232,-0.0912 -0.6843,-0.31934 -0.27372,-0.77554 -0.6843,-0.41058 -0.9124,-0.86678 -0.6843,-0.50182 -1.3686,-0.50182 -0.27372,-0.31934 0.86678,-0.59306 0.95802,-0.2281 0.63868,0.54744 z m 17.28998,-2.64596 -0.0456,0.41058 0.86678,0.6843 0.31934,0.4562 -0.54744,0.95802 -1.8248,-0.36496 -0.36496,-0.36496 0.72992,-0.59306 -0.41058,-0.2281 -0.54744,0.6843 -1.00364,-0.31934 -0.41058,-0.41058 0.31934,-0.63868 0.6843,0.0456 0.77554,-0.36496 v -0.27372 l 1.04926,-0.0912 0.41058,0.41058 z m -37.08906,-0.72992 -0.59306,0.13686 -0.54744,-0.36496 -0.54744,-0.86678 -1.00364,-1.00364 0.31934,-0.50182 0.72992,-0.18248 0.63868,0.54744 -0.50182,0.54744 0.36496,0.31934 0.41058,1.09488 z m 30.93036,-3.92332 -0.31934,0.63868 -0.0456,0.59306 -1.73356,-0.31934 -0.13686,-1.04926 1.00364,-0.0456 0.36496,0.36496 0.4562,-0.41058 0.41058,0.2281 z m 1.09488,-3.14778 -0.63868,0.18248 -0.77554,-0.59306 0.63868,-0.2281 z m -5.42878,-1.3686 -0.72992,0.27372 -0.82116,-0.50182 0.50182,-1.04926 0.59306,0.0456 0.4562,0.59306 z m 7.25358,-0.77554 -0.2281,-0.31934 -0.95802,-0.54744 -2.09852,-0.27372 -1.04926,-0.41058 -0.41058,0.0912 -0.9124,-0.4562 -0.54744,0.18248 -1.1405,0.77554 -0.6843,-0.0912 -0.72992,-0.4562 -1.00364,0.18248 -0.77554,0.86678 -0.82116,0.4562 -0.82116,-0.18248 h -1.04926 l -0.0912,0.50182 0.9124,0.95802 -0.2281,0.4562 0.2281,0.4562 0.95802,0.0456 1.1405,0.59306 -0.31934,0.31934 -1.45984,-0.54744 -0.54744,-0.0456 -0.54744,0.54744 1.5967,1.23174 0.2281,0.63868 -0.27372,0.41058 -0.6843,-0.36496 -1.1405,-1.45984 -1.41422,-0.27372 -0.18248,0.27372 0.54744,1.09488 1.32298,0.77554 -0.27372,0.27372 -1.3686,-0.4562 -0.50182,-0.72992 -0.18248,-0.9124 -2.5091,-1.27736 -0.63868,-1.27736 -1.00364,0.59306 0.18248,0.9124 -0.27372,1.73356 0.18248,0.59306 1.5967,1.68794 0.59306,1.23174 1.18612,0.95802 1.18612,1.45984 0.31934,0.82116 -0.59306,0.50182 -0.59306,-0.2281 0.13686,-0.86678 -1.00364,-0.54744 -0.86678,0.54744 0.6843,1.04926 0.2281,0.54744 -0.18248,0.59306 -0.72992,0.36496 -1.18612,0.0456 1.09488,0.63868 1.50546,0.4562 0.72992,0.50182 0.6843,0.0456 0.77554,0.95802 1.18612,0.27372 0.77554,0.95802 0.9124,0.2281 0.77554,0.36496 0.4562,0.95802 0.13686,1.32298 0.27372,0.95802 0.0456,0.77554 -0.50182,0.2281 -0.59306,-0.72992 -1.91604,-1.64232 -0.4562,-0.18248 -0.4562,0.31934 -1.32298,0.2281 -0.86678,0.59306 0.6843,0.59306 0.0456,0.54744 0.36496,0.6843 0.9124,0.18248 0.9124,1.09488 -1.3686,0.4562 -0.50182,0.31934 -0.36496,-0.2281 -0.0912,-0.54744 -1.96166,-1.00364 -0.27372,0.27372 0.31934,1.09488 0.59306,0.72992 1.00364,1.96166 0.59306,1.68794 -0.0912,0.95802 0.4562,0.6843 0.0456,0.6843 -0.77554,-0.54744 -1.00364,-1.1405 -0.36496,-0.6843 -1.00364,0.0456 -0.59306,1.50546 0.0912,0.86678 -0.72992,-0.50182 -0.0912,-1.32298 -0.95802,-1.27736 -0.41058,-0.18248 -0.59306,-0.86678 -0.6843,0.27372 -0.0456,1.32298 -0.18248,0.4562 -1.00364,-0.86678 -1.04926,-1.5967 -0.0912,-0.82116 0.63868,-0.77554 -0.13686,-0.54744 -0.72992,-1.1405 -0.95802,-0.6843 -0.54744,-0.2281 -0.31934,-0.72992 -0.9124,-0.59306 v -0.4562 l 0.9124,-0.77554 0.4562,-1.18612 0.86678,0.2281 0.63868,-0.0912 0.9124,-1.09488 0.72992,0.0456 1.77918,0.95802 1.91604,0.54744 0.95802,0.4562 0.54744,0.50182 0.72992,0.13686 -0.2281,-0.63868 0.36496,-0.18248 h 0.95802 l 0.0912,-0.72992 -0.9124,-0.27372 -0.36496,0.0912 -1.09488,-0.63868 -1.04926,-0.36496 -1.00364,-0.6843 -0.54744,0.59306 h -0.54744 l -1.55108,-0.41058 -0.95802,0.31934 -1.91604,0.31934 -0.50182,-0.59306 -1.18612,0.4562 -0.4562,-0.31934 -0.86678,-1.91604 -0.77554,-0.86678 -0.54744,-0.2281 -0.0912,-0.86678 0.6843,-0.0912 1.09488,0.41058 0.41058,-0.27372 -0.27372,-0.72992 -1.1405,-0.0912 -0.82116,0.2281 -1.27736,-1.00364 -0.6843,-0.77554 -1.00364,-0.50182 -0.77554,-1.55108 -1.18612,-1.18612 1.23174,0.41058 0.31934,-0.31934 0.13686,-0.6843 0.41058,-0.31934 -0.4562,-1.00364 0.77554,-0.59306 0.86678,-0.13686 0.27372,-0.2281 0.13686,-0.9124 0.54744,-1.41422 0.77554,-0.36496 0.36496,-1.18612 -0.50182,-0.82116 v -0.50182 l 2.09852,-0.13686 0.41058,-0.27372 1.04926,0.27372 1.09488,-0.59306 0.77554,-1.1405 0.36496,-0.13686 1.3686,-0.18248 1.50546,0.27372 1.32298,-0.4562 0.0912,-0.95802 0.9124,-0.13686 1.3686,0.0912 0.4562,-0.4562 1.09488,-0.0912 1.18612,0.0912 1.3686,-0.50182 0.86678,-0.0912 0.0912,-0.41058 1.91604,0.0456 0.72992,-0.2281 0.54744,0.77554 1.09488,0.63868 0.41058,-0.27372 1.68794,0.54744 0.77554,0.50182 1.55108,-0.41058 1.45984,-0.18248 0.82116,0.13686 1.1405,-0.54744 0.0912,-0.36496 -0.41058,-1.23174 -0.31934,-0.4562 0.72992,-0.50182 0.72992,0.2281 0.54744,0.13686 1.04926,0.6843 0.41058,1.41422 -1.55108,1.1405 0.2281,2.00728 -1.1405,1.45984 -0.36496,0.18248 z"
     class="sm_state sm_state_GR"
     opacity="1"
     stroke-opacity="1"
     stroke-width="0.739429"
     stroke-linejoin="round"
     style="opacity:1;fill-opacity:1;stroke-linejoin:round;stroke-opacity:1;-webkit-tap-highlight-color:rgba(0, 0, 0, 0)"
     fill-opacity="1"
     id="path3" />
  <path
     fill="#808080"
     stroke="#ffffff"
     d="m 269.9993,268.52329 -0.54744,1.1405 -1.27736,1.96166 -0.6843,2.32662 0.13686,0.9124 0.72992,0.63868 -0.31934,0.2281 0.72992,0.82116 0.0456,0.59306 -0.82116,0.86678 -0.18248,0.77554 0.0456,0.6843 -1.32298,-0.27372 -0.63868,0.13686 -1.68794,-0.63868 -0.86678,-1.27736 -1.3686,-0.9124 h -1.3686 l -0.63868,-0.2281 -1.32298,-0.86678 -1.3686,-0.63868 -1.18612,-0.95802 -0.77554,-0.18248 -0.6843,-0.4562 h -1.32298 l -1.04926,-0.72992 -0.59306,-1.04926 0.59306,-1.68794 0.63868,-0.36496 0.41058,-0.54744 1.04926,1.04926 0.82116,-0.36496 0.63868,-0.72992 1.09488,0.0456 0.2281,0.41058 0.63868,0.13686 1.1405,0.72992 0.63868,0.18248 1.55108,-0.4562 1.3686,0.18248 1.27736,-0.2281 0.77554,-0.27372 0.54744,-0.4562 0.63868,-0.13686 1.5967,0.13686 0.9124,-0.54744 0.36496,0.0912 0.9124,-0.54744 0.50182,0.50182 z m -35.72046,-18.9323 0.31934,0.41058 0.82116,2.281 -0.27372,0.72992 -0.59306,0.9124 0.36496,1.27736 -0.27372,5.2463 -0.27372,1.32298 -0.41058,0.18248 -1.32298,-0.54744 -0.6843,0.13686 -0.54744,-0.27372 -0.13686,1.3686 -0.82116,0.95802 -1.3686,-0.0912 -0.31934,-0.27372 -1.09488,-1.73356 -0.18248,-1.96166 0.27372,-0.59306 v -1.1405 l 0.50182,-0.0456 v -0.77554 l -0.82116,-0.54744 v -0.86678 l 0.31934,-0.63868 -0.0456,-1.18612 -0.36496,-0.41058 -0.36496,-1.04926 -1.00364,-1.09488 0.0456,-1.55108 1.55108,0.27372 0.59306,-0.13686 1.41422,-0.6843 0.95802,-1.1405 0.63868,-0.2281 0.6843,-0.82116 0.31934,0.41058 1.00364,0.36496 0.54744,0.6843 0.41058,0.2281 -0.31934,0.63868 0.4562,0.36496 z m 3.78646,-14.05096 0.13686,0.63868 -1.1405,0.2281 -0.50182,-0.50182 1.32298,-0.0912 0.18248,-0.27372 z m 17.28998,-25.82092 -0.0912,0.41058 -1.50546,1.04926 0.31934,0.63868 1.04926,0.31934 -0.72992,0.95802 0.13686,0.4562 0.59306,0.0912 -0.18248,0.9124 0.86678,0.50182 0.6843,0.59306 0.0912,0.59306 -0.6843,0.0456 0.31934,-0.27372 -0.9124,-1.00364 -0.9124,0.41058 -1.45984,-0.41058 -0.95802,0.9124 -0.6843,0.18248 -0.77554,0.50182 -1.45984,0.54744 -0.82116,-0.18248 -0.4562,0.31934 -0.18248,1.41422 0.36496,0.27372 0.6843,1.18612 0.77554,0.50182 -0.31934,0.86678 -0.41058,0.31934 -0.59306,-0.2281 -0.13686,0.77554 0.41058,2.0529 0.63868,1.45984 0.54744,0.59306 1.23174,1.00364 1.23174,0.50182 2.32662,1.68794 1.27736,0.50182 0.31934,0.31934 0.82116,1.27736 0.72992,1.45984 0.82116,2.32662 0.59306,1.1405 1.04926,1.32298 2.18976,1.87042 1.96166,1.32298 1.8248,0.86678 1.3686,0.13686 3.1934,-0.18248 1.18612,0.31934 0.18248,0.54744 -0.18248,0.41058 -1.32298,0.95802 v 0.77554 l 0.6843,0.54744 3.23902,1.45984 3.28464,1.18612 1.00364,0.63868 1.23174,0.95802 2.91968,1.32298 0.50182,0.63868 1.8248,1.3686 0.82116,1.09488 0.2281,0.82116 -0.6843,2.00728 -0.72992,-0.2281 -0.86678,-0.59306 -1.41422,-2.46348 -2.281,-0.2281 -1.32298,-0.59306 -0.31934,-0.63868 -1.04926,-0.18248 -0.59306,0.41058 -0.63868,0.9124 -0.6843,1.3686 -0.6843,1.96166 v 0.77554 l 0.50182,0.77554 1.32298,0.4562 1.09488,0.6843 0.72992,0.72992 0.13686,1.73356 0.41058,0.95802 -0.41058,0.59306 -0.86678,-0.13686 -1.1405,0.31934 -0.77554,0.63868 -0.31934,0.63868 0.2281,1.55108 -0.13686,0.63868 -1.50546,1.1405 -0.72992,1.1405 -0.4562,1.04926 h -1.96166 l -0.50182,-0.6843 -0.0456,-1.00364 0.27372,-0.59306 0.72992,-0.31934 0.41058,-1.27736 -0.2281,-0.9124 0.50182,-0.72992 1.27736,-0.31934 v -1.32298 l -0.63868,-0.59306 -0.63868,-2.32662 -1.09488,-1.96166 -0.63868,-1.73356 -0.50182,-0.82116 -0.63868,-0.4562 -1.68794,-0.13686 -2.09852,-1.18612 -0.13686,-0.50182 0.27372,-0.50182 -0.50182,-1.27736 -0.9124,-0.77554 -1.18612,0.27372 -0.54744,-0.0456 -0.0456,-0.6843 -0.9124,-0.59306 -1.23174,-0.0912 -0.31934,-0.31934 -1.18612,-1.8248 -0.77554,-0.77554 -1.04926,0.0456 -1.77918,-0.41058 -0.9124,0.31934 -1.45984,-1.18612 -1.27736,-0.41058 -2.60034,-2.41786 -0.82116,-0.9124 -1.5967,-1.00364 -1.04926,-1.45984 -0.82116,-0.54744 -1.8248,-0.63868 -0.13686,-0.59306 -1.41422,-1.41422 -0.77554,-0.4562 -0.59306,-0.95802 -1.1405,-0.2281 0.0456,-1.23174 -0.54744,-1.5967 -0.77554,-1.00364 -0.54744,-2.41786 -0.36496,-0.6843 -0.82116,-0.50182 -1.8248,-0.54744 -2.60034,-1.55108 -0.50182,-0.0456 -1.55108,-0.59306 -0.95802,-0.0912 -1.18612,0.54744 -1.41422,1.45984 -1.1405,1.55108 -0.41058,0.27372 -1.55108,0.54744 -1.3686,0.2281 -0.0912,-0.6843 0.95802,-1.18612 -0.13686,-0.9124 -1.50546,0.27372 -2.32662,-1.09488 -0.41058,-0.41058 -0.0456,-0.63868 -0.31934,-0.59306 0.63868,-1.1405 0.36496,-0.31934 -0.2281,-0.77554 -1.45984,-0.63868 -0.6843,-1.41422 0.36496,-0.18248 0.86678,0.0912 0.77554,-0.59306 0.54744,-0.13686 0.36496,-1.1405 -0.82116,-0.72992 -0.77554,-1.18612 -0.41058,-0.27372 -0.0456,-0.72992 1.18612,-0.77554 0.63868,0.31934 1.09488,-0.2281 1.18612,-0.4562 1.41422,0.36496 1.09488,-0.63868 0.72992,-1.00364 -0.27372,-0.6843 1.55108,-1.32298 0.4562,0.27372 0.0912,1.1405 1.09488,0.9124 1.00364,0.27372 -0.18248,0.54744 0.59306,0.54744 0.41058,0.63868 0.54744,-0.31934 -0.31934,-0.77554 0.0912,-0.4562 1.00364,-1.18612 0.2281,-0.50182 v -1.32298 l 0.9124,-0.0456 0.36496,0.95802 0.9124,0.36496 1.32298,-0.50182 0.31934,0.0456 0.63868,0.86678 0.54744,-0.13686 -0.6843,-1.5967 0.27372,-0.82116 0.59306,-0.13686 0.4562,0.41058 0.86678,0.0912 -0.2281,-0.82116 0.2281,-1.41422 1.3686,0.13686 0.41058,0.36496 0.95802,0.18248 0.50182,-0.18248 0.54744,-1.00364 0.63868,-0.27372 1.55108,-0.13686 1.41422,0.0912 2.14414,-0.6843 v 1.04926 l 1.41422,1.5967 0.50182,0.2281 3.92332,0.6843 1.8248,0.13686 1.18612,0.2281 z"
     class="sm_state sm_state_IT"
     opacity="1"
     stroke-opacity="1"
     stroke-width="0.739429"
     stroke-linejoin="round"
     style="opacity:1;fill-opacity:1;stroke-linejoin:round;stroke-opacity:1;-webkit-tap-highlight-color:rgba(0, 0, 0, 0)"
     fill-opacity="1"
     id="path4" />
  <path
     fill="#0000ff"
     stroke="#ffffff"
     d="m 288.15606,230.79555 0.18248,0.54744 1.18612,0.77554 0.86678,0.9124 1.3686,0.72992 0.95802,0.2281 2.41786,1.32298 0.0456,0.4562 -0.72992,0.18248 -0.0912,0.31934 -0.9124,0.18248 0.41058,0.6843 -0.0912,0.59306 -1.55108,0.54744 -0.36496,-0.95802 -0.50182,-0.13686 -1.45984,2.41786 -0.36496,0.13686 -1.1405,-0.0912 0.72992,0.86678 0.77554,0.36496 0.13686,0.27372 v 1.41422 l -0.95802,-0.54744 -0.41058,-0.82116 -1.41422,-1.32298 -1.5967,-0.9124 0.0456,-0.4562 -0.72992,0.0456 -0.54744,-0.86678 0.50182,-0.4562 0.0456,-0.36496 -0.50182,-0.72992 -0.27372,-1.3686 0.2281,-0.31934 0.77554,-0.0912 -0.0456,-0.6843 0.2281,-0.77554 0.9124,-0.77554 1.04926,-0.0912 -0.63868,-1.00364 1.45984,-0.2281 z"
     class="sm_state sm_state_ME"
     opacity="1"
     stroke-opacity="1"
     stroke-width="0.739429"
     stroke-linejoin="round"
     style="opacity:1;fill-opacity:1;stroke-linejoin:round;stroke-opacity:1;-webkit-tap-highlight-color:rgba(0, 0, 0, 0)"
     fill-opacity="1"
     id="path5" />
  <path
     fill="#808080"
     stroke="#ffffff"
     d="m 292.3531,212.63879 0.77554,0.9124 1.32298,0.77554 0.82116,0.9124 0.36496,-0.0912 0.18248,1.87042 1.00364,0.82116 1.73356,0.86678 1.18612,0.36496 0.41058,0.50182 -0.6843,0.9124 1.04926,0.50182 -0.82116,0.36496 -0.0912,0.27372 0.95802,0.27372 0.6843,0.54744 1.5967,0.31934 0.6843,0.31934 0.4562,0.54744 0.59306,-0.0912 0.77554,-0.82116 0.77554,-0.2281 1.3686,0.72992 -1.1405,0.82116 0.2281,0.77554 0.72992,0.41058 0.36496,0.54744 -0.41058,0.31934 -0.0912,0.86678 -0.95802,0.4562 -0.18248,1.04926 0.27372,1.09488 1.09488,1.77918 1.32298,0.6843 0.59306,0.72992 0.72992,0.4562 -0.13686,0.63868 -0.72992,0.77554 -0.50182,0.72992 -0.82116,0.0456 -0.50182,0.27372 v 1.50546 l 0.63868,1.32298 -0.50182,0.77554 -0.4562,0.13686 -0.63868,-0.31934 -1.04926,0.36496 -0.86678,-0.13686 -0.9124,0.41058 -1.00364,0.13686 -0.27372,-0.59306 0.4562,-0.41058 0.54744,-1.45984 0.0912,-0.54744 -2.14414,-0.54744 v -0.59306 l -1.00364,-0.54744 -0.0912,-0.31934 -1.04926,-0.95802 -1.27736,-0.59306 -0.50182,-0.59306 -0.77554,0.41058 0.27372,0.72992 -0.18248,0.4562 -0.77554,0.59306 v 0.63868 l -0.6843,0.2281 -0.0456,-0.4562 -2.41786,-1.32298 -0.95802,-0.2281 -1.3686,-0.72992 -0.86678,-0.9124 -1.18612,-0.77554 -0.18248,-0.54744 0.31934,-0.36496 1.1405,0.13686 0.0912,-1.00364 -1.45984,-1.68794 0.2281,-0.36496 1.41422,0.0456 0.13686,-0.36496 -1.50546,-1.32298 -1.09488,-0.54744 -0.2281,-0.36496 0.0456,-1.18612 0.72992,-1.23174 0.2281,-1.1405 -0.6843,-0.36496 -1.27736,0.31934 0.4562,-0.72992 -0.31934,-1.18612 0.77554,-0.18248 1.04926,-0.0456 -0.41058,-0.6843 -1.3686,-0.4562 -0.54744,-0.4562 0.18248,-0.9124 -0.59306,-0.18248 -0.0912,-0.72992 -0.72992,-1.23174 0.31934,-0.6843 0.95802,-0.59306 0.72992,0.2281 1.00364,-0.4562 0.6843,-0.72992 0.4562,-0.13686 1.32298,0.18248 0.50182,-0.0912 1.27736,0.13686 0.4562,0.2281 z"
     class="sm_state sm_state_RS"
     opacity="1"
     stroke-opacity="1"
     stroke-width="0.739429"
     stroke-linejoin="round"
     style="opacity:1;fill-opacity:1;stroke-linejoin:round;stroke-opacity:1;-webkit-tap-highlight-color:rgba(0, 0, 0, 0)"
     fill-opacity="1"
     id="path6" />
  <path
     fill="#808080"
     stroke="#ffffff"
     d="m 293.76732,237.72979 0.2281,0.18248 0.9124,1.32298 0.63868,0.2281 0.86678,0.59306 0.63868,1.45984 0.0456,1.00364 -0.2281,1.18612 0.13686,0.95802 -0.36496,0.36496 0.31934,0.9124 0.0912,0.86678 0.54744,1.00364 0.54744,0.50182 0.59306,1.09488 0.72992,-0.0912 0.59306,0.50182 v 0.50182 l 0.50182,0.82116 -0.36496,1.18612 -0.77554,0.36496 -0.54744,1.41422 -0.13686,0.9124 -0.27372,0.2281 -0.86678,0.13686 -0.77554,0.59306 0.4562,1.00364 -0.41058,0.31934 -0.13686,0.6843 -0.31934,0.31934 -1.23174,-0.41058 -0.31934,-1.1405 -0.77554,-1.23174 -2.23538,-1.18612 -0.54744,-0.50182 0.18248,-0.6843 -0.0456,-0.63868 -0.63868,-1.09488 0.13686,-1.18612 0.36496,-1.00364 -0.13686,-1.23174 0.0456,-0.95802 -0.31934,-1.32298 0.2281,-0.95802 0.41058,-0.59306 -0.0912,-1.00364 -0.6843,-0.50182 -0.72992,-0.0912 v -1.41422 l -0.13686,-0.27372 h 0.77554 l -0.77554,-1.27736 1.45984,-2.41786 0.50182,0.13686 0.36496,0.95802 1.55108,-0.54744 z"
     class="sm_state sm_state_AL"
     opacity="1"
     stroke-opacity="1"
     stroke-width="0.739429"
     stroke-linejoin="round"
     style="opacity:1;fill-opacity:1;stroke-linejoin:round;stroke-opacity:1;-webkit-tap-highlight-color:rgba(0, 0, 0, 0)"
     fill-opacity="1"
     id="path7" />
  <path
     fill="#808080"
     stroke="#ffffff"
     d="m 307.04274,239.41773 1.50546,1.45984 1.55108,0.82116 0.77554,1.50546 0.41058,0.4562 -0.2281,0.77554 v 1.91604 l -0.9124,0.13686 -0.0912,0.95802 -1.32298,0.4562 -1.50546,-0.27372 -1.3686,0.18248 -0.36496,0.13686 -0.77554,1.1405 -1.09488,0.59306 -1.04926,-0.27372 -0.41058,0.27372 -2.09852,0.13686 -0.59306,-0.50182 -0.72992,0.0912 -0.59306,-1.09488 -0.54744,-0.50182 -0.54744,-1.00364 -0.0912,-0.86678 -0.31934,-0.9124 0.36496,-0.36496 -0.13686,-0.95802 0.2281,-1.18612 0.77554,0.13686 0.2281,-0.36496 0.0912,-1.18612 1.55108,-0.6843 0.4562,-0.0456 0.72992,0.54744 0.6843,-0.86678 0.95802,-0.18248 1.00364,-0.13686 0.9124,-0.41058 0.86678,0.13686 1.04926,-0.36496 z"
     class="sm_state sm_state_MK"
     opacity="1"
     stroke-opacity="1"
     stroke-width="0.739429"
     stroke-linejoin="round"
     style="opacity:1;fill-opacity:1;stroke-linejoin:round;stroke-opacity:1;-webkit-tap-highlight-color:rgba(0, 0, 0, 0)"
     fill-opacity="1"
     id="path8" />
  <path
     fill="#808080"
     stroke="#ffffff"
     d="m 271.18542,209.90159 -1.1405,-0.27372 -0.41058,0.36496 v 0.77554 h -0.9124 l -0.31934,0.4562 -2.00728,0.77554 -0.18248,0.63868 0.41058,0.41058 0.0912,1.00364 -0.18248,0.50182 -0.95802,0.27372 -0.95802,0.4562 0.4562,0.50182 -0.31934,0.31934 0.36496,1.04926 -0.54744,0.18248 -0.72992,-0.0912 -0.9124,-0.31934 -0.59306,0.2281 -0.6843,-0.31934 -1.18612,-0.95802 -0.54744,1.00364 -0.27372,0.13686 -1.64232,0.0456 -0.50182,-0.2281 -0.63868,0.59306 -1.50546,-0.36496 -0.2281,-0.27372 0.77554,-0.50182 0.6843,-0.0456 -0.0912,-0.59306 -0.6843,-0.59306 -0.86678,-0.50182 0.18248,-0.9124 -0.59306,-0.0912 -0.13686,-0.4562 0.72992,-0.95802 -1.04926,-0.31934 -0.31934,-0.63868 1.50546,-1.04926 0.0912,-0.41058 2.281,0.41058 2.281,0.31934 1.3686,-0.54744 0.4562,-0.59306 0.86678,-0.31934 1.18612,-0.0912 1.27736,0.0912 1.04926,-0.50182 0.72992,-0.0912 1.09488,0.2281 0.0456,-0.86678 0.59306,-0.41058 1.09488,0.0456 0.63868,1.50546 0.86678,1.00364 z"
     class="sm_state sm_state_SI"
     opacity="1"
     stroke-opacity="1"
     stroke-width="0.739429"
     stroke-linejoin="round"
     style="opacity:1;fill-opacity:1;stroke-linejoin:round;stroke-opacity:1;-webkit-tap-highlight-color:rgba(0, 0, 0, 0)"
     fill-opacity="1"
     id="path9" />
  <path
     fill="#808080"
     stroke="#ffffff"
     d="m 302.57198,239.87393 -0.95802,0.18248 -0.6843,0.86678 -0.72992,-0.54744 -0.4562,0.0456 -1.55108,0.6843 -0.0912,1.18612 -0.2281,0.36496 -0.77554,-0.13686 -0.0456,-1.00364 -0.63868,-1.45984 -0.86678,-0.59306 -0.63868,-0.2281 -0.9124,-1.32298 -0.2281,-0.18248 0.0912,-0.59306 -0.41058,-0.6843 0.9124,-0.18248 0.0912,-0.31934 0.72992,-0.18248 0.6843,-0.2281 v -0.63868 l 0.77554,-0.59306 0.18248,-0.4562 -0.27372,-0.72992 0.77554,-0.41058 0.50182,0.59306 1.27736,0.59306 1.04926,0.95802 0.0912,0.31934 1.00364,0.54744 v 0.59306 l 2.14414,0.54744 -0.0912,0.54744 -0.54744,1.45984 -0.4562,0.41058 0.27372,0.59306 z"
     class="sm_state sm_state_XK"
     opacity="1"
     stroke-opacity="1"
     stroke-width="0.739429"
     stroke-linejoin="round"
     style="opacity:1;fill-opacity:1;stroke-linejoin:round;stroke-opacity:1;-webkit-tap-highlight-color:rgba(0, 0, 0, 0)"
     fill-opacity="1"
     id="path10" />
  <circle
     cx="0"
     cy="0"
     r="0"
     fill="none"
     stroke="#000000"
     style="-webkit-tap-highlight-color:rgba(0, 0, 0, 0)"
     stroke-width="1"
     id="circle10" />
  <desc
     id="desc10">Created with Raphaël 2.1.0</desc>
  <defs
     style="-webkit-tap-highlight-color:rgba(0, 0, 0, 0)"
     id="defs10" />
</svg>
